<?xml version="1.0" encoding="utf-8"?>
<!-- Generator: Adobe Illustrator 25.2.0, SVG Export Plug-In . SVG Version: 6.00 Build 0)  -->
<svg  version="1.1" id="Layer_1" xmlns="http://www.w3.org/2000/svg" xmlns:xlink="http://www.w3.org/1999/xlink" x="0px" y="0px"
	 viewBox="0 0 252 72" style="enable-background:new 0 0 252 72;" xml:space="preserve">
<style type="text/css">
	.st0{fill:#FFFFFF;}
</style>
<g>
	<path class="st0" d="M92.2,0.1c-14.8,0-27.6,9-33,21.8L68,36.5c0-0.2,0-0.3,0-0.5c0-13.4,10.9-24.2,24.2-24.2
		c13.4,0,24.2,10.9,24.2,24.2s-10.9,24.2-24.2,24.2c-4.3,0-8.3-1.1-11.8-3.1c-3.1-1.8-5.8-4.2-7.9-7.1c-0.2-0.2-0.3-0.4-0.5-0.7
		c-0.4-0.6-0.8-1.3-1.2-2L42.9,0.3l-0.2-0.3L36,12v0l6.8,11.3l14,23.3l5.3,8.8l0.4,0.7c5.2,7.6,13.2,13.2,22.6,15.1c0,0,0,0,0.1,0
		c1.3,0.3,2.6,0.5,4,0.6c1,0.1,2,0.1,3.1,0.1c19.8,0,35.9-16.1,35.9-35.9C128.1,16.2,112,0.1,92.2,0.1z M28.8,46.6l12.1-20.2
		l-6.8-11.3L15.2,46.6l-5.3,8.8L0,71.9h13.6l9.9-16.5h34.8L53,46.6H28.8z"/>
	<path class="st0" d="M187.7,51c-0.2-0.5-0.4-1.1-0.6-1.6c0,0,0,0,0,0.1c-0.1,0.2-0.3,0.4-0.5,0.7c-2.1,2.9-4.8,5.3-7.9,7.1
		c-3.5,2-7.5,3.1-11.8,3.1c-13.4,0-24.2-10.9-24.2-24.2s10.9-24.2,24.2-24.2c2.3,0,4.6,0.3,6.7,1c5.6,1.6,10.4,5.2,13.5,9.9
		c1.5-4,3.6-7.7,6.3-10.9c-6.5-7.2-16-11.7-26.5-11.7c-19.8,0-35.9,16.1-35.9,35.9c0,19.9,16.1,35.9,35.9,35.9c1,0,2.1,0,3.1-0.1
		c1.4-0.1,2.7-0.3,4-0.6h0.1c7.6-1.5,14.3-5.5,19.4-11C191,57.5,189.1,54.4,187.7,51z"/>
	<path class="st0" d="M246.4,51c-0.2-0.5-0.4-1.1-0.6-1.6c0,0,0,0,0,0.1c-0.1,0.2-0.3,0.4-0.5,0.7c-2.1,2.9-4.8,5.3-7.9,7.1
		c-3.5,2-7.5,3.1-11.8,3.1c-13.4,0-24.2-10.9-24.2-24.2s10.9-24.2,24.2-24.2c2.3,0,4.6,0.3,6.7,1c5.6,1.6,10.4,5.2,13.5,9.9
		c1.5-4,3.6-7.7,6.3-10.9c-6.5-7.2-16-11.7-26.5-11.7c-19.8,0-35.9,16.1-35.9,35.9c0,19.9,16.1,35.9,35.9,35.9c1,0,2.1,0,3.1-0.1
		c1.4-0.1,2.7-0.3,4-0.6h0.1c7.6-1.5,14.3-5.5,19.4-11C249.7,57.5,247.8,54.4,246.4,51z"/>
</g>
</svg>
