<svg id="Layer_1" data-name="Layer 1" xmlns="http://www.w3.org/2000/svg" viewBox="0 0 144 144"><defs><style>.cls-1{fill:#FFFFFF;}</style></defs><path class="cls-1" d="M55.21739,54.159a17.84422,17.84422,0,0,0-16.4069,10.82284l4.36866,7.27683q-.00234-.11708-.00218-.23509a12.04376,12.04376,0,1,1,2.24161,6.998q-.11566-.162-.22634-.32781-.31705-.47486-.58882-.98094L30.75128,54.28513l-.07587-.12613-3.38272,5.94028v.00031l3.38272,5.63434L37.60851,77.282l2.62969,4.3799.20667.344a17.84994,17.84994,0,0,0,11.2284,7.48288l.03371.00687a17.7517,17.7517,0,0,0,1.98967.28129q.75164.0637,1.52074.064a17.841,17.841,0,1,0,0-35.682ZM23.74232,77.282l6.008-10.00705-3.383-5.63464L16.97656,77.282l-2.62969,4.3799-4.9097,8.17816h6.76544l4.91-8.17816H38.38808L35.75839,77.282Z"/><path class="cls-1" d="M102.62263,79.45352c-.107-.25507-.21394-.52657-.31268-.78987-.00823.00823-.01642.02466-.02466.03289-.07407.107-.1481.21394-.23041.32915a12.04054,12.04054,0,1,1-9.79974-19.04,11.79341,11.79341,0,0,1,3.34064.47725,11.95287,11.95287,0,0,1,6.69775,4.9122,18.93631,18.93631,0,0,1,3.11023-5.41416A17.83379,17.83379,0,1,0,92.25514,89.83753c.51838,0,1.02028-.01647,1.52219-.0576a17.57041,17.57041,0,0,0,1.99121-.288h.03294a17.80043,17.80043,0,0,0,9.61051-5.44705A19.18537,19.18537,0,0,1,102.62263,79.45352Z"/><path class="cls-1" d="M131.77347,79.45352c-.107-.25507-.21394-.52657-.31268-.78987-.00823.00823-.01642.02466-.02465.03289-.07408.107-.14811.21394-.23042.32915a12.04054,12.04054,0,1,1-9.79974-19.04,11.79341,11.79341,0,0,1,3.34064.47725,11.95287,11.95287,0,0,1,6.69775,4.9122A18.93631,18.93631,0,0,1,134.5546,59.961,17.83379,17.83379,0,1,0,121.406,89.83753c.51838,0,1.02029-.01647,1.52219-.0576a17.57041,17.57041,0,0,0,1.99121-.288h.03294a17.80036,17.80036,0,0,0,9.61051-5.44705A19.18569,19.18569,0,0,1,131.77347,79.45352Z"/></svg>