<?xml version="1.0" encoding="utf-8"?>
<!-- Generator: Adobe Illustrator 25.2.0, SVG Export Plug-In . SVG Version: 6.00 Build 0)  -->
<svg version="1.1" id="Layer_1" xmlns="http://www.w3.org/2000/svg" xmlns:xlink="http://www.w3.org/1999/xlink" x="0px" y="0px"
	 viewBox="0 0 640 512" style="enable-background:new 0 0 640 512;" xml:space="preserve" >
<g>
	<path fill="white" d="M627.8,267.1c-0.2,3.5-1.1,6.2-2.3,8.8c-2,4.7-4.9,8.8-8.5,12.4c-4.4,4.3-9.1,8.4-13.7,12.5c-3.4,3-6.9,6-10.3,8.9
		c0.1,0.2,0.3,0.4,0.4,0.5c0.6-0.3,1.3-0.7,1.9-1c2.7-1.8,5.3-3.5,8-5.3c1-0.7,2.4-0.9,2.1-2.6c0-0.3,0.6-1,0.8-1
		c2.2,0.3,2.7-1.7,3.9-2.8c2.1-2,4.2-3.7,7-4.4c0.2,0.2,0.4,0.4,0.6,0.6c-0.9,1.1-1.8,2.2-2.7,3.2c-10.2,11.4-22.2,20.8-35.4,28.5
		c-7.2,4.2-14.7,7.9-22,11.8c-1.9,1-3.8,1.4-5.9,1c-1-0.2-2-0.3-3.1-0.4c-6.2-0.3-10.1-3.9-12.7-9.1c-0.5-1.1-0.8-2.4-0.8-3.6
		c-0.1-7.2,0-14.4,0-21.6c0-1,0-2,0-3.6c-1.3,0.9-2.6,1.3-3.2,2.2c-1,1.6-2.5,2.2-4,3.1c-2.7,1.5-5.3,3.1-7.6,5.1
		c-4.4,3.8-8.4,8.1-12.7,12c-4.7,4.3-9.5,8.6-14.4,12.7c-3.9,3.2-8.4,5.6-13.4,6.6c-2.1,0.4-4.3,0.6-6.5,0.5
		c-3.6-0.1-6.5-1.1-7.9-5.1c-0.9-2.5-2.9-4.7-4.5-7c-1.4-2.1-1.5-4.2-0.7-6.5c1.7-5.2,3.2-10.5,4.8-16c-1.4,0.6-2.8,1.2-4.3,1.9
		c0.3,1,0.5,1.9,0.8,3.2c-1.1-0.1-1.9-0.1-2.3-0.2c-2.1,2-4,3.7-5.8,5.6c-1.7,1.8-3.3,3.8-4.9,5.7c-0.3,0.3-0.4,1.1-0.7,1.1
		c-2.6,0.5-3.4,2.9-4.9,4.5c-5.9,6.1-12.7,10.7-20.3,14.4c-5.4,2.6-10.7,2.8-16.3,1.5c-9-2-16.1-6.9-21.6-14.2
		c-6.1-8-9.6-17.1-12.1-26.7c-1.1-4.2-1.9-8.5-2.9-12.8c-1.5,0-2.4,1.2-3.4,2c-8.3,6.8-15.3,14.8-21.8,23.2
		c-6.4,8.4-12.6,16.8-19,25.2c-2.1,2.7-4.4,5.3-6.5,8c-0.8,1-1.3,2.3-1.7,3.5c-0.6,1.9-1.8,2.8-3.8,2.2c-2.7-0.8-5.3-1.9-6.5-4.9
		c-1.7-4.2-3.7-8.3-5.5-12.5c-1-2.3-0.8-4.6-0.1-7c3.6-11.9,7-23.9,10.4-35.9c0.3-1.1,0.5-2.2,0.9-3.9c-2.4,1.3-4.3,2.4-6.2,3.4
		c-0.3,0.2-0.7,0.4-0.7,0.7c0,2.7-2.4,3.4-4,4.7c-8.1,6.4-17.1,10.9-26.7,14.5c-0.9,0.3-1.7,0.7-2.5,1c-0.2,0.1-0.3,0.3-0.8,1
		c3.3-0.5,6.1-1,9.5-1.5c-1.1,1.6-1.8,3.2-3,4.2c-1.3,1.2-3.1,1.9-4.7,2.8c-1.7,0.8-3.5,1.5-5.6,2.4c-0.5,0.6-1.2,1.9-2.3,2.4
		c-8.2,3.9-16.7,6.8-25.9,7c-8.1,0.2-14.1-3.4-18.3-10c-3.2-5-4.1-10.6-4.4-16.4c-0.3-6.3,0.5-12.5,2.9-18.4
		c5.6-13.5,12.9-25.7,23.3-36c5-4.9,10.6-9.1,16.8-12.3c4.4-2.3,9.2-2.3,13.7-1.3c2.9,0.6,5.9,2.1,7.1,5.6c0.6,1.8,2.2,3.5,3.6,4.9
		c1.5,1.4,2,2.9,1.6,4.9c-0.3,1.5-0.4,3-0.6,4.4c-0.4,2.4-1.6,4.5-3.6,6c-0.9,0.7-1.7,1.5-2.2,2.5c-2.4,5-6,8.9-10.2,12.3
		c-4.1,3.4-8.4,6.7-12.6,10c-0.4,0.3-0.7,0.7-1.1,0.8c-4.9,1.3-9.7,2.9-14.6,3.6c-2.6,0.4-5.5-0.7-8.7-1.2c-4,5.7-4.3,13.1-5.9,20
		c3.1,2.5,6.5,3.6,10.2,3.9c6.3,0.6,12.3-0.4,18.2-2.5c6.4-2.2,12.6-4.9,18.9-7.1c5.3-1.9,10.3-4.3,15.3-6.9
		c6.1-3.2,12.3-6,18.5-9.1c2-1,3.9-2.3,5.9-3.4c-0.5-1.3-1.1-2.5-1.4-3.7c-0.7-3.1-0.5-3.2,2.3-5c0.8-0.5,1.4-1.5,1.8-2.4
		c3-5.8,4.5-12,5.5-18.3c0.6-3.6,1-7.2,1.6-10.9c0.3-2.1,0.3-4.2,2.1-5.7c1.5-5.8,4-11.5,4-17.6c0-1.3,0-2.5,1.2-3.3
		c0.2-0.1,0.3-0.4,0.3-0.6c-0.2-2.4,1.4-4.6,1.3-6.9c0-1.1-0.1-1.8,0.7-2.7c0.6-0.7,0.9-1.6,1.1-2.5c0.7-2.8,1.2-5.7,1.8-8.5
		c0.5-2.1,0.4-4.3,2-6.1c0.3-0.3,0.5-0.9,0.3-1.3c-0.8-2.8,0.7-5.1,1.4-7.6c0.3-1.1,1-2,0.3-3.2c-0.2-0.4,0.2-1.7,0.6-2
		c2.2-1.4,2-3.3,1.6-5.4c-0.1-0.5-0.2-1.3,0.1-1.5c1.1-0.8,1.7-1.5,0.6-2.7c-0.1-0.1-0.1-0.5,0-0.6c3.1-3,2.8-7,3.6-10.7
		c0.3-1.3-0.2-2.8,1.5-3.5c0.3-0.1,0.4-0.8,0.5-1.2c0.8-3.6,1.5-7.1,2.4-10.7c0.3-1.4-0.2-3.2,1.8-3.8c0.3-0.1,0.5-0.9,0.4-1.2
		c-1-2.3,0.6-3.9,1.6-5.6c0.5-0.9,1.2-1.7,0.4-2.8c-0.2-0.3-0.2-0.9,0-1.2c1.7-3,1.9-6.5,3.1-9.6c1.6-4.1,2.5-8.4,4.2-12.5
		c1.1-2.8,2.7-5.5,2-8.9c-0.1-0.7,0.5-1.8,1.1-2.4c2.3-2.5,2.3-5.7,2.8-8.7c0.3-1.6,0.5-3,1.4-4.4c1.3-2.1,2.1-4.6,3.1-6.9
		c1.6-3.6,2.2-7.6,4.2-11.1c2.4-4.2,3.8-9,5.9-13.5c1.9-4,3.9-8.1,6.4-11.7c4-5.8,9.7-8.5,16.8-8.2c0.9,0,2.2,0.3,2.7,1
		c2.1,2.5,4.8,3.9,7.5,5.3c2.7,1.3,4.5,3.4,5.6,6.2c1.9,4.6,3,9.4,2.8,14.4c-0.3,6-1.1,12.1-1.8,18.1c-0.1,1.2-1.1,2.3-1.8,3.8
		c1.2,1.9-0.1,4-0.7,6.1c-0.2,0.7-0.7,1.5-0.7,2.2c0,4.7-1.4,9-2.9,13.3c-1.1,3.5-2.2,7-3.1,10.5c-0.4,1.4-0.9,2.2-2.7,2.2
		c1.3,2.5,0.5,4.6-0.3,6.8c-1,2.6-1.4,5.4-2.8,7.7c-1.5,2.4-1.6,5.1-2.7,7.5c-1.1,2.6-2.1,5.3-3.1,8c-1.8,4.7-3.5,9.4-5.4,14.5
		c-0.3,0-1,0.1-1.7,0.3c1.6,3.2,1.7,3.2-0.5,6.1c-1.3,1.7-2.7,3.4-2.4,5.9c0.1,0.4-0.6,0.9-0.8,1.3c-0.6,1.4-1.1,2.9-1.8,4.3
		c-0.4,0.7-1.1,1.2-1.7,1.7c0.1,0.8,0.7,1.8,0.3,2.4c-1.1,2.1-2.4,4-3.6,5.9c-0.3,0.5-0.7,0.9-0.9,1.4c-2.2,4.7-3.7,9.7-6.5,14.1
		c-0.7,1.2-0.6,2.8-1,4.5c-2.6,2.3-4.9,5-4.4,9.2c0.1,0.6-0.3,1.4-0.7,1.8c-3.1,3.4-4.8,7.5-6.4,11.6c-1.7,4.2-3.5,8.2-7,11.2
		c-0.2,0.1-0.5,0.3-0.5,0.5c-0.1,5.3-3.8,8.8-6.6,12.7c-0.4,0.5-0.5,1.3-0.7,1.9c-1.8,5.3-4.7,9.9-8.5,13.9
		c-0.5,0.6-1.4,1.2-1.4,1.9c-0.1,3-1.9,5.1-3.4,7.4c-0.3,0.5-0.8,1-0.8,1.5c-0.1,4.8-4.1,8.6-3.6,13.6c0.1,0.6-0.4,1.3-0.8,1.7
		c-1.6,1.7-1.9,3.7-2,6.4c1.3-1.2,2.3-2,3.1-2.9c4-4.2,8-8.4,12.1-12.6c4-4.1,8.2-8,13.4-10.7c3.6-1.9,7.6-3.1,11.4-4.5
		c1.9-0.7,3.6-0.7,5.6,0.9c1.5,1.2,3.5,1.9,4.4,4c3.2-0.5,4.3,1.7,4.8,4.2c0.8,4.3,1.6,8.5,2.1,12.8c0.8,7,1.2,14.1,2.1,21.1
		c0.6,4.8,2.3,9.3,5.5,13.1c0.8,0.9,1.4,2.6,3.2,1.2c0.1-0.1,0.7,0.2,0.8,0.4c0.9,1.7,2.4,1.5,3.9,1.3c5.4-0.5,10.7-1.3,15.2-4.5
		c15.3-11.2,31-21.8,45.8-33.8c6.6-5.3,13.4-10.3,20.1-15.5c1.2-0.9,2.2-2,3.1-3.1c1.8-2.2,3.4-4.6,5.2-6.8
		c5.1-6.5,11.7-10.4,19.8-11.9c1.6-0.3,3.5-0.2,5.1,0.2c3.3,0.9,6.7,1.8,9.7,3.3c8.2,4,11,12.2,7.2,20.5c-0.5,1.1-1.1,2.2-2,4
		c1.8-0.5,3-0.7,4.2-1.2c6.2-2.5,10.2-1.2,12.4,6.7c1.3,4.6,1,9.1-1.5,13.3c-0.3,0.6-0.7,1.4-0.5,1.9c1.2,3.6,0,7-0.8,10.4
		c-0.7,2.9-1.4,5.8-0.4,9.1c1.4-0.2,2.7-0.2,4-0.5c17.3-3.4,32.1-11.7,45.4-22.9c6.5-5.5,12.7-11.6,18.9-17.5
		c4.1-3.9,8.1-8.1,12.1-12.1C625.7,269,626.5,268.3,627.8,267.1z M466.5,293.8c-3.8,2-7,4.7-10.3,7.5c0.2,0.2,0.3,0.5,0.5,0.7
		c3.3-2.6,6.6-5.3,9.9-8c0.6-0.5,1.3-0.9,1.9-1.4c-0.1-0.1-0.2-0.3-0.3-0.4C467.7,292.7,467.1,293.3,466.5,293.8z M571,323.6
		c-0.6,0.2-1.2,0.4-2.1,0.7c1.9,1.2,1.9,1.2,2.3-0.5c1.2-0.1,2.6,0.1,3.6-0.5c5.8-2.9,11-6.8,15.9-11.1c-1.8,0.8-3.6,1.7-5.3,2.8
		C580.6,317.9,575.8,320.8,571,323.6z M389.1,144.3c0.5-0.9,1.1-1.7,1.4-2.6c3.6-9.9,7.2-19.8,10.7-29.7c0.8-2.3,2.1-4.6,1-7.3
		c-0.2-0.5,0.2-1.3,0.4-2c2-7.6,4-15.2,6-22.9c2.8-10.6,4.9-21.4,4.4-32.5c-0.1-2.1-0.4-4.2-0.7-6.4c-3.6,0.8-4.7,1.4-6.7,4.3
		c-1.2,1.8-2.2,3.8-3.7,5.3c-1.4,1.4-2.4,3-3.2,4.8c-6.1,14.5-12.2,29.1-18.3,43.6c-0.3,0.8-1,1.9-0.7,2.6c1.2,2.8-0.4,4.8-1.6,7
		c-0.6,1.1-1,2.3-1.5,3.5c-2.3,6.3-4.5,12.7-6.7,19c-0.2,0.5-0.3,1.1-0.4,1.7c-2.8,14.8-7,29.3-11.1,43.8
		c-4.8,16.9-9.8,33.8-12.8,51.2c-0.2,1.1-0.3,2.3-0.4,3.4c1.2-1,1.8-2.1,2.4-3.2c5.9-11.5,11.9-22.9,17.8-34.4
		c0.5-0.9,0.8-1.9,1.2-2.8c9.1-21.5,18.2-42.9,27.3-64.4c0.5-1.1,1.1-2.2,1.6-3.4c0.2,0.1,0.5,0.2,0.7,0.3c-1.7,5-3.5,10.1-5.2,15.1
		C390.2,140.4,389.7,142.4,389.1,144.3c-1.8,2.2-2.2,4.9-3.2,7.4c0.2,0.1,0.4,0.2,0.6,0.2C387.3,149.4,388.2,146.9,389.1,144.3z
		 M475.5,324.7c6-2.6,11.4-6.1,16.2-10.3c9.9-8.9,19.7-18.1,29.5-27.2c0.2-0.1,0.2-0.4,0.4-0.8c-2.6-4.4-0.7-9.6-1.7-14.8
		c-1.6,0.6-3.1,1-4.4,1.6c-7.7,3.3-14.1,8.5-19.4,14.9C487,299,481.5,311.9,475.5,324.7z M259.9,257.8c-2.8,2.5-5.6,4.7-8.1,7.1
		c-2.6,2.4-5.1,4.9-7.5,8.3c10.2-3.6,25.4-16,29-23.7c-5.4,2-10.7,3.6-15.1,7.4C258.9,257.3,259.4,257.6,259.9,257.8z M617.1,282.2
		c-0.4,0.3-0.9,0.6-1.3,1c-13.4,12-27.2,23.4-42.4,33.1c-0.6,0.4-1.2,0.7-1.8,0.9c-1.7,0.6-3.5,1.1-5.2,1.8
		c-0.3,0.1-0.3,0.9-0.5,1.4c0.2,0.2,0.4,0.4,0.6,0.5C585.6,311,603.1,299,617.1,282.2z M362.8,204.2c0.2,0.2,0.5,0.3,0.7,0.5
		c0.3-0.6,0.7-1.2,1-1.8c5.8-11.5,11.2-23.2,15.5-35.3c0.4-1.1,1.3-2.1,2-3.2c-0.2-0.3-0.6-0.7-1.2-1.5
		C374.6,176.9,368.7,190.6,362.8,204.2z M349.1,233.3c2.9-2.1,4-5.2,4.9-8.4c0.3-1.2,0.7-2.2,1.9-3.1c2.1-1.5,2.4-3.9,1.9-6.4
		C353.6,220.7,351.7,227.2,349.1,233.3z M262.4,318.5c-3.2,0.3-6.4,0.6-9.9,0.9c0.5,1,0.8,1.6,1,2.1
		C256.9,321.6,259.6,319.8,262.4,318.5z M348.5,168.2c1.4-1.3,2.3-2.7,1-5.2C348.2,164.9,348.2,166.5,348.5,168.2z M338.9,204.7
		c-1,1.8-2,3.1-1.5,5C339.6,208.6,339.7,208.1,338.9,204.7z M343.6,190.1c0.3-1.4,0.5-2.6,0.8-4.1c-1,0.2-1.6,0.3-2.5,0.5
		C343.1,187.6,341.1,189.4,343.6,190.1z M340.5,198.5c0.9-2.2,1.6-4,2.5-6.2c-0.7,0.2-1.6,0.4-1.6,0.6
		C341.3,194.7,339,196,340.5,198.5z M467.2,298.7c3.1-1.8,3.1-1.8,3.5-3.6C468.2,296.4,468.2,296.4,467.2,298.7z M321.4,298
		c-0.2-0.1-0.5-0.1-0.7-0.2c-0.8,1.6-2.1,3-0.8,5.3C320.4,301.4,320.9,299.7,321.4,298z M446.3,309.1c0.2,0.2,0.4,0.4,0.5,0.6
		c1.3-1.1,2.7-2.3,4-3.4c-0.2-0.2-0.4-0.4-0.6-0.6C449,306.8,447.7,308,446.3,309.1z M376.5,78.2c-1.2-0.4-1.2-0.4-2.1,3.1
		c-0.3-0.3-0.6-0.6-0.9-0.9C374.5,79.7,375.5,78.9,376.5,78.2z M356.2,141.4c-0.2-0.2-0.3-0.3-0.4-0.3c-0.1,0.1-0.1,0.2-0.1,0.2
		c-0.9,2.4-0.9,2.4,0.6,4.1C356.2,143.8,356.2,142.5,356.2,141.4z M466.4,304.7c0.4-1.1,0.8-2,1.1-2.8c-0.2-0.1-0.3-0.3-0.5-0.4
		c-0.8,0.7-1.6,1.4-2.5,2.2C465.2,304.1,465.6,304.3,466.4,304.7z M333.2,222.4c-0.1,1.5-0.6,2.6,0.7,4.4
		C333.9,225,335.2,223.9,333.2,222.4z M352.8,156.3c0.7-1.5,0.7-1.5-0.8-2.4C352.3,154.7,352.5,155.5,352.8,156.3z M363.3,116.7
		c-0.2,0-0.4-0.1-0.6-0.1c-0.3,1.1-0.5,2.2-0.8,3.3c0.3,0.1,0.5,0.1,0.8,0.2C362.9,118.9,363.1,117.8,363.3,116.7z M473.4,288.2
		c0.3,0.3,0.5,0.5,0.8,0.8c0.7-0.7,1.5-1.5,2.2-2.2c-0.2-0.2-0.4-0.4-0.5-0.6C475.1,286.9,474.2,287.6,473.4,288.2z M349.5,176.9
		c0.4-1.5,0.5-2.3,0.8-3.4C348.7,174.3,348.5,175.1,349.5,176.9z M344.7,178.1c0.3,0.1,0.6,0.2,1,0.3c0.4-1,0.7-2.1,1.1-3.1
		c-0.2-0.1-0.4-0.2-0.7-0.2C345.6,176.1,345.1,177.1,344.7,178.1z M369.3,94.2c0.3,0.1,0.6,0.3,0.9,0.4c0.4-0.9,0.7-1.7,1.1-2.6
		c-0.2-0.1-0.4-0.2-0.7-0.3C370.1,92.6,369.7,93.4,369.3,94.2z M363.5,138.8c-0.2,0-0.5,0-0.7,0c0,0.7,0,1.4,0,2.1
		c0.2,0,0.4,0,0.6,0C363.4,140.2,363.5,139.5,363.5,138.8z M341.2,201.4c-0.1-0.3-0.1-0.6-0.2-0.8c-0.6,0.1-1.3,0.2-1.8,0.5
		c-0.1,0.1,0.1,0.9,0.2,1.7C340.3,202.1,340.7,201.8,341.2,201.4z M327.5,309.7c1.2-0.4,2.2-0.9,1.8-2.4
		C328.7,308.1,328.1,308.9,327.5,309.7z M368.1,100.9c-0.2,0-0.5,0-0.7-0.1c0,0.7-0.1,1.4-0.1,2c0.2,0,0.3,0,0.5,0.1
		C367.9,102.2,368,101.5,368.1,100.9z M359.4,126.1c0.2,0.1,0.5,0.2,0.7,0.4c0.4-0.8,0.9-1.6,1.3-2.3c-0.2-0.1-0.4-0.2-0.6-0.4
		C360.3,124.6,359.8,125.4,359.4,126.1z M339.6,302.9c-1.3,0.1-2,0.5-1.6,2.3C338.8,304.2,339.2,303.6,339.6,302.9z M355.1,167.7
		c0.4-1.2,0.6-1.8,0.8-2.8C354.5,165.5,353.8,165.9,355.1,167.7z M354.5,146.8c-0.4,1.1-0.7,1.8-0.9,2.6
		C355.3,149.2,355.7,148.6,354.5,146.8z M348.2,293.3c1.3,0.2,1.9-0.4,2.4-2.1C349.5,292.2,348.9,292.7,348.2,293.3z M350.8,159.4
		c0.4-0.4,0.7-0.7,0.9-1c0.1-0.1-0.4-0.6-0.5-0.6c-0.4,0.2-0.7,0.4-0.9,0.7C350.2,158.6,350.6,159,350.8,159.4z M357.7,132
		c0.1,0.1,0.2,0.3,0.4,0.4c0.4-0.4,0.8-0.7,1.3-1.1c-0.2-0.2-0.4-0.4-0.7-0.6C358.4,131.2,358,131.6,357.7,132z M464.8,298.8
		c-0.3,0.6-0.5,1.1-0.7,1.6c0.3,0.1,0.7,0.4,0.8,0.3c0.3-0.3,0.5-0.7,0.7-1.1C465.6,299.4,465.2,299.2,464.8,298.8z M357.9,146.3
		c-0.2,0-0.5,0-0.7,0.1c0.1,0.5,0.2,1,0.3,1.4c0.1,0,0.3,0,0.4-0.1C357.9,147.3,357.9,146.8,357.9,146.3z M334.7,218.6
		c-0.2,0.1-0.3,0.2-0.5,0.3c0.3,0.5,0.6,0.9,0.8,1.4c0.2-0.1,0.5-0.3,0.5-0.3C335.3,219.5,335,219,334.7,218.6z M369.6,118.1
		c-0.2-0.1-0.4-0.1-0.6-0.2c-0.1,0.5-0.3,0.9-0.4,1.4c0.2,0,0.5,0.2,0.5,0.1C369.2,119,369.4,118.6,369.6,118.1z M349.7,184.1
		c0.2,0,0.4,0.1,0.6,0.1c0.1-0.7,0.1-1.3,0.2-2c-0.2,0-0.3,0-0.5-0.1C349.9,182.8,349.8,183.4,349.7,184.1z M316.4,311
		c0.2,0,0.4,0.1,0.6,0.1c0.1-0.6,0.2-1.2,0.3-1.8c-0.2,0-0.6-0.1-0.6,0C316.6,309.8,316.5,310.4,316.4,311z M373.8,83.9
		c-0.2-0.1-0.5-0.1-0.7-0.2c-0.1,0.6-0.2,1.2-0.3,1.8c0.1,0,0.3,0.1,0.4,0.1C373.4,85,373.6,84.4,373.8,83.9z M366.3,107
		c-0.5,1-0.8,1.6-1.3,2.5C366.4,109.2,367.3,109,366.3,107z M361,211.8c-0.2-0.1-0.4-0.2-0.6-0.3c-0.2,0.6-0.4,1.2-0.6,1.8
		c0.2,0.1,0.4,0.1,0.6,0.2C360.6,212.9,360.8,212.4,361,211.8z M460.4,305.1c-0.1-0.2-0.2-0.4-0.3-0.5c-0.5,0.2-1,0.5-1.5,0.7
		c0.1,0.2,0.1,0.3,0.2,0.5C459.3,305.5,459.9,305.3,460.4,305.1z"/>
	<path fill="white" d="M123.3,172.9c0.2-0.3,0.4-0.7,0.6-1c-2.3-0.8-1.7-2.7-0.9-3.8c3-4.3,3.1-9.5,5-14.1c1.9-4.5,3-9.4,4.4-14
		c5.2-17,10.2-34.1,15.7-51.1c1.3-4,3.9-7.7,6.3-11.3c1.7-2.6,3.3-2.7,5.9-1c1.3,0.8,2.5,2,3.5,3.2c1.4,1.7,2.5,3.5,3.7,5.4
		c1.2,1.8,1.1,4.1-0.2,5.7c-3.6,4.2-5.9,9.2-7.9,14.3c-2.4,6.1-4.7,12.1-7.1,18.2c-0.1,0.2-0.2,0.4-0.3,0.6
		c-1.7,7.2-3.4,14.4-5.1,21.6c-0.1,0.4-0.1,1.1-0.4,1.3c-2.2,1.6-1.9,4.2-2.5,6.4c-1.1,3.8-2.1,7.7-3.7,11.4
		c-1.8,4.4-2.3,9.3-5.3,13.3c-0.6,0.8-0.1,2.4-0.5,3.6c-1.5,4.9-2.8,9.9-5,14.5c-1.2,2.5-1.2,4.9-1.9,7.3c-1.2,3.7-2.7,7.3-4.1,10.9
		c-0.4,1-1,1.8-1.3,2.8c-1.3,4.6-2.4,9.3-3.8,13.8c-1.9,6-3.9,12-5.6,18c-1.8,6.1-4.2,12.1-6.2,18.2c-1.4,4.1-2.4,8.3-3.7,12.5
		c-0.3,1.1-0.8,2.1-1.2,3.5c0.7-0.1,1.4-0.1,1.8-0.4c2.1-1.5,4.2-3.2,6.3-4.8c3.3-2.5,6.5-5.1,9.8-7.5c4.3-3.2,8.6-6.4,12.1-10.6
		c0.1-0.1,0.2-0.2,0.2-0.2c6.1-4.8,10.8-11,16.3-16.4c5.4-5.4,10.5-11.2,15.6-16.9c5.2-5.8,10.3-11.7,15.3-17.6c1-1.2,1.7-2.6,2.5-4
		c0.7-1.5,1.7-2.7,3.7-3.4c-0.4,1-0.5,1.8-0.8,2.4c-0.7,1.3-1.5,2.6-2.4,3.8c-4.8,6.1-9.4,12.4-14.5,18.2
		c-5.1,5.8-10.4,11.3-15.4,17.2c-0.7,0.8-1.4,1.7-2.1,2.6c0.1,0.2,0.3,0.3,0.4,0.5c1.3-1.1,2.7-2.1,3.9-3.4c1.3-1.4,2.4-3,3.6-4.6
		c1.1-1.5,1.9-3.4,4.1-3.9c0.7-0.2,1.1-1.1,1.6-1.7c7.6-9.4,15.2-18.8,22.8-28.3c1.5-1.9,2.8-4.1,4.2-6.1c0.6-0.9,1.3-1.8,2.1-2.6
		c0.6-0.7,1.4-1.3,1.9-2c3.2-4.4,6.4-8.9,9.5-13.4c0.4-0.6,0.8-1.3,0.8-2.2c-0.6,0.5-1.3,1.1-1.9,1.6c-0.2-0.1-0.3-0.2-0.5-0.3
		c0.6-1.3,1-2.6,1.8-3.7c2.6-3.8,5.4-7.4,7.9-11.2c1.9-2.9,5.1-4.9,5.6-8.7c4.9-5.6,7.4-12.9,13-18c0.6-0.5,1-1.2,1.4-1.9
		c3.6-6.7,7.2-13.5,10.8-20.3c1.4-2.7,2.9-5.4,4.2-8.2c0.4-0.8,0.6-2.5,0.3-2.7c-0.9-0.5-2.1-0.6-3.1-0.4c-1.6,0.3-3.2,1.1-5.3,1.8
		c0.2-1.2,0.1-2,0.4-2.6c0.9-2,1.8-4,3.1-5.7c3.7-4.8,7.6-9.4,11.7-14.3c4.6,3,9.1,5,12.9,8.4c2.1,1.9,2.7,4,2.1,6.7
		c-1.6,7.4-4,14.6-7.6,21.2c-3.2,5.8-6.7,11.5-10.1,17.1c-0.7,1.2-1.9,2.1-2.9,3.2c-0.4,0.4-0.8,0.8-1.1,1.2c-0.8,1-1.7,1.8-2.4,2.9
		c-2.8,4.3-5.5,8.7-8.3,13c-1.1,1.7-2.8,3.2-3.6,5.1c-0.8,2-2.5,3.2-3.4,4.9c-5.2,9.4-12.9,17.1-18.3,26.4c-0.8,1.4-1.5,2.9-3.3,3.3
		c-0.3,0.1-0.7,0.3-0.8,0.6c-1.2,4.5-5.5,6.8-7.8,10.6c-3.6,5.9-8.1,11.3-12.4,16.8c-3.9,5-8.1,9.8-12.2,14.7
		c-1.7,2-3.7,3.7-5.6,5.5c-0.6,0.6-1.1,1.1-1.6,1.7c-3.7,4.2-7.3,8.5-11,12.6c-3.4,3.7-6.7,7.6-10.5,10.8
		c-8.2,7-15.4,15.2-24.3,21.5c-4.7,3.2-8.5,7.7-13.5,10.4c-0.4,0.2-0.6,0.6-1.1,1.2c2.3,1.2,4.3,2.4,6.5,3.4
		c3.8,1.8,7.7,3.4,11.5,5.2c4.4,2.1,8.7,4.4,13,6.8c1.4,0.7,2.8,1.6,3.3,3.3c-1.8,1.3-2.4-0.7-3.5-1.2c-1.4,1.8-1.4,1.8,3,4.4
		c0.3-0.4,0.7-0.8,1-1.2c0.2-0.3,0.3-0.7,0.8-1c0,1.1,0,2.2,0,3.2c4,2.6,7.8,5,11.5,7.5c1.5,1,2.6,2.7,4.7,1.7c2.8,2,5.7,4,8.4,6.1
		c1.3,1,2.2,2.6,3.5,3.5c3.9,2.7,7.9,5.4,12,7.9c4.3,2.6,8.8,4.9,13,7.6c4.1,2.6,8,5.6,11.9,8.5c2.4,1.8,4.7,3.9,7.3,5.6
		c-0.7-2.3-2.2-4-4.1-5.4c-1.3-0.9-2.6-1.6-3.4-3.2c-0.4-0.8-1.2-1.4-2-1.8c-2.3-1.1-3.1-3.7-5.5-4.9c-0.5-0.2-0.2-2-0.3-3.1l0,0.1
		c3.1,0.8,4.7,3.4,6.9,5.3c0.3,0.3,0.6,0.7,1,0.9c6,2.4,9.8,7.4,14,11.9c1.5,1.5,1.9,3.5,1.6,5.4c-0.8,4.9-1.9,9.8-3,15.4
		c-1.8,2.6-5.5,2.5-9,3.2c-0.5-0.5-1-1.1-1.7-1.5c-2.3-1.4-3.5-3-2.1-5.9c0.4-0.9,0-2.2-0.2-3.3c-0.4-1.8-0.9-3.5-1.5-5.3
		c-0.3-0.8-0.8-1.7-1.4-2.2c-2.4-2-4.8-3.9-7.3-5.6c-1.1-0.7-2.1-1.3-2.4-2.7c-0.5-2-1.8-3.3-3.4-4.5c-3.9-2.9-7.8-5.8-12.2-9
		c0.2,2.3,2.8,2.6,2,5c-2.3-1.6-4.4-3.2-7-5.1c1.2-0.2,1.9-0.4,2.7-0.5c-0.2-0.9-2.5-2.2-3.7-1.8c-1.6,0.5-2.5-0.2-3.7-1
		c-1.2-0.8-2.7-1.1-4-1.8c-1.4-0.8-2.8-1.6-3.9-2.6c-0.4-0.3-0.1-1.4-0.1-2.5c-0.5-0.3-1.4-0.8-2.3-1.2c-0.8-0.4-1.6-0.7-2.5-0.8
		c0.9,0.8,1.9,1.7,3.1,2.7c-3.5,0.5-5.5-0.9-6.1-3.9c-1.2,1.5-2.5,1-3.5,0.1c-3.6-3.4-8.5-4.3-12.5-6.9c-1.8-1.2-3.8-2.1-5.7-3
		c-3.8-1.8-7.6-3.7-11.5-5.4c-5.6-2.5-11.3-4.8-16.9-7.3c-4-1.8-8.1-2.8-12.3-4.4c-1.1,3-2.4,5.7-3.2,8.5
		c-2.6,9.3-5.2,18.7-7.7,28.1c-0.9,3.5-1.7,7.1-2.6,10.6c-0.7,2.5-1.5,5-2.2,7.5c-0.6,2.2-1.3,4.3-1.9,6.5c0.2,0.1,0.5,0.2,0.7,0.4
		c1.9-2.9,3.7-5.7,5.6-8.6c-1.2,6.7-1.4,13.6-4.6,19.7c-0.8,1.6-1,3.5-1.5,5.3c-0.2,0.7-0.6,1.4-1.4,2c-0.1-0.8-0.3-1.7-0.5-3.3
		c-3.3,6.4-4.3,12.6-5.7,18.7c3-2.7,3.3-6.8,5.6-10.4c0.9,1.8,0.7,3.4,0.4,4.9c-0.4,2.2-1.1,4.4-1.5,6.7c-0.6,3.1-1,6.3-1.5,9.4
		c-0.1,0.7-0.2,1.4-0.4,2c-1.5,3.9-3,7.9-4.7,11.7c-0.9,1.9-2,3.9-3.6,5.3c-0.9,0.9-2.7,1.3-4.3,0.6c-0.8-0.4-1.7-0.6-2.4-1.1
		c-1.8-1.5-3.8-2.9-5.3-4.7c-1.8-2.2-2.1-4.8-1.4-7.7c5.3-22.2,10.4-44.5,15.4-66.8c0.5-2.1,1.7-3.3,3.3-4.3
		c-1.5-2.9-1.6-3.2-0.5-6.2c3.7-9.8,6.4-20,8.7-30.2c0.2-0.9,0.5-1.7,0.8-2.8c-0.9-0.5-1.7-1.1-2.6-1.6c-6.9-4.4-10.2-10.9-10.4-19
		c0-1.3,0.1-2.4,1.3-3.3c0.8-0.5,1.3-1.5,1.7-2.4c2.3-4.8,4.9-6.4,10.2-6.1c1.8,0.1,3.6-0.3,5.4-0.3c1,0,2.1,0.5,3.5,0.9
		c0.5-1.3,1.1-2.8,1.8-4.3c0.4-0.9,1-1.7,1.5-2.6c0.1,0.5,0.1,1,0.3,2.2c2.2-3.1,2.2-6.2,2.6-9.1c-1,2.3-2,4.7-2.9,7
		c0.7-3.2,1.3-6.4,2-9.5c1,0,1.6,0,2.3,0c0.2-0.2,0.3-0.4,0.5-0.6c-0.7-0.2-1.4-0.5-2.7-0.9c3.9-3.1,6.5-6.1,6-11.3
		c-1.1,2.3-1.9,4-2.7,5.7c0.1-4.9,1.9-9.2,4.2-13.5c-0.1,1.3-0.2,2.5-0.4,4.3c0.5-0.5,0.9-0.7,1-1c1-3.1,1.9-6.3,2.8-9.5
		c0.4-1.4,0.7-2.8,0.7-4.3c-1.2,1.8-0.5,4.3-2.4,6c-0.7-3.9,0.8-8.3,3.4-10.5c0.7-0.6,1.2-1.6,1.6-2.5c0.7-1.7,1.3-3.4,1.9-5.2
		c-1.7-2.2-1.3-4.7,1.5-8.3c0.1,1,0.1,1.6,0.2,2.7c2.4-6.7,4.7-12.9,7-19.1c-3.1,4.1-4.2,9-6.4,13.5c1-5.1,2.2-10.2,4.7-14.8
		c0.7-1.4,1.1-2.9,1.6-4.5c0.8-2.8,1.5-5.7,2.3-8.6c1.5-4.9,3.2-9.8,4.8-14.6c0.2-0.6,0.4-1.4,0.9-1.8
		C122,172.6,122.8,172.9,123.3,172.9c-0.3,0.8-0.7,1.6-1,2.4c0.2,0.1,0.4,0.1,0.6,0.2C123,174.6,123.2,173.7,123.3,172.9z
		 M71.5,349.6c-1.5,1.7-1.7,3.8-1.5,6C70.5,353.6,70.9,351.6,71.5,349.6c0.4-1.3,0.8-2.6,1.2-3.9C71.4,347.3,71.4,347.3,71.5,349.6z
		 M194.2,199.3c-3.8,4.4-7.7,8.8-11.5,13.3c-1.4,1.6-2.4,3.6-4,5c-1.7,1.4-2.6,3-3,5.1c-2.9,3-6.4,5.5-8.4,9.3
		c-0.3,0.6-0.9,1-1.4,1.4c-2.2,2.3-4.5,4.5-6.7,6.8c-3.4,3.5-6.8,7-10,10.7c-1.3,1.5-3.2,3-2.8,5.5c-1.4,0.9-2.9,1.6-4.2,2.7
		c-2.4,2-4.7,4.3-7,6.4c-0.8,0.7-1.8,1.4-1,3.2c4.1-4.3,8.1-8.3,12-12.3c0.8-0.9,1.6-1.9,2.5-2.8c8.1-9,16.1-18,24.1-27.1
		c1-1.2,1.8-2.6,2.7-3.9c0.6-0.5,1.3-0.9,1.8-1.5c5.3-6.7,10.6-13.4,15.8-20.1C193.7,200.5,193.9,199.8,194.2,199.3
		c0.5-0.6,1.1-1.2,1.7-1.8c-0.2-0.1-0.4-0.3-0.5-0.4C195,197.8,194.6,198.5,194.2,199.3z M89.2,287.9c0.3,0.1,0.6,0.2,0.9,0.3
		c0.4-1.3,0.7-2.5,1.1-3.8c2.5-8.1,4.9-16.1,7.4-24.2c0.4-1.2,1.4-2.4,1.2-3.5c-0.3-1.4,2.6-0.6,1.3-2.4c-0.5-0.8,0.1-2.4,0.5-3.6
		c1.5-4.7,3-9.3,4.5-14c0.3-1,0.6-2.1,0.9-3.2C100.3,251.5,94.1,269.5,89.2,287.9z M148,248.9c-6.5,6.5-14.1,14-20.8,20.7
		C134.7,263.7,142.7,256.6,148,248.9z M67.3,364c-2.5,4.2-11.5,41.1-11.3,45.8C59.7,394.8,63.4,379.5,67.3,364z M114.8,279.5
		c0.2,0.2,0.4,0.4,0.6,0.6c3.1-2.3,6.1-4.8,8.1-8.3C120.6,274.3,117.7,276.9,114.8,279.5z M128.8,273.1c-0.2-0.3-0.5-0.5-0.7-0.8
		c-1.8,1.7-3.6,3.5-5.4,5.2c0.2,0.2,0.3,0.4,0.5,0.6C125,276.4,126.9,274.7,128.8,273.1z M79.4,321.4c-0.2-0.1-0.4-0.1-0.7-0.2
		c-0.7,2.4-1.4,4.8-2.1,7.2c0.3,0.1,0.6,0.2,0.9,0.3C78.1,326.2,78.7,323.8,79.4,321.4z M207.3,181.6c-0.2-0.2-0.4-0.4-0.7-0.6
		c-1.6,1.5-2.5,3.4-2.9,5.6C204.9,185,206.1,183.3,207.3,181.6z M76.2,323.4c-0.2-0.1-0.4-0.1-0.6-0.2c-0.4,1.2-0.8,2.4-1.2,3.7
		c0.2,0.1,0.4,0.1,0.6,0.2C75.4,325.9,75.8,324.7,76.2,323.4z M67.4,351.3c0.3,0.1,0.5,0.1,0.8,0.2c0.1-1,0.2-1.9,0.4-2.9
		c-0.1,0-0.3,0-0.4-0.1C67.9,349.5,67.6,350.4,67.4,351.3z M113.3,213.2c0.1,0,0.2,0.1,0.3,0.1c0.2-0.9,0.5-1.8,0.7-2.7
		c-0.2,0-0.3-0.1-0.5-0.1C113.7,211.3,113.5,212.3,113.3,213.2z M85.5,287.5c0.2,0.1,0.4,0.2,0.7,0.3c0.3-0.7,0.5-1.4,0.8-2.1
		c-0.2-0.1-0.5-0.2-0.7-0.3C86,286.2,85.8,286.9,85.5,287.5z M76.2,334.4c-0.2-0.1-0.4-0.2-0.6-0.3c-0.3,1-0.5,1.9-0.8,2.9
		c0.2,0,0.3,0.1,0.5,0.1C75.6,336.2,75.9,335.3,76.2,334.4z M120.1,183c0.2,0.1,0.4,0.1,0.6,0.2c0.2-0.9,0.5-1.9,0.7-2.8
		c-0.1,0-0.3-0.1-0.4-0.1C120.7,181.2,120.4,182.1,120.1,183z M215.6,170.8c-0.1-0.1-0.2-0.2-0.3-0.3c-0.3,0.3-0.6,0.6-0.9,1
		c0.1,0.1,0.2,0.2,0.3,0.3C215,171.4,215.3,171.1,215.6,170.8z M103.3,288.5c0.1,0.1,0.2,0.2,0.3,0.4c0.5-0.4,1.1-0.8,1.6-1.3
		c-0.1-0.1-0.2-0.3-0.3-0.4C104.4,287.6,103.8,288.1,103.3,288.5z M126.7,162.4c0.2,0.1,0.3,0.1,0.5,0.2c0.1-0.5,0.2-1,0.3-1.5
		c-0.1,0-0.2-0.1-0.3-0.1C127,161.5,126.9,162,126.7,162.4z M222.8,160.5c-0.1-0.1-0.2-0.2-0.2-0.3c-0.3,0.2-0.7,0.3-0.9,0.5
		c-0.2,0.3-0.3,0.7-0.4,1.1c0.1,0.1,0.2,0.1,0.4,0.2C222.1,161.4,222.5,161,222.8,160.5z M83.2,329.4c0.2,0.2,0.2,0.3,0.3,0.3
		c0.1,0,0.3,0,0.3-0.1c0.2-0.6,0.4-1.2,0.6-1.8c-0.2,0-0.3-0.1-0.5-0.1C83.7,328.3,83.4,328.9,83.2,329.4z"/>
	<path d="M115.2,480.4c-1.9,0.5-2.1-0.5-2.1-1.6c0-2.6,0-5.3,0-7.9c0-0.9-0.1-1.7-0.7-2.8c-1,1.6-1.9,3.2-2.9,4.8
		c-1,1.6-1.9,3.3-3.2,5.5c-2.2-3.8-4.1-7-6.4-10.9c-0.6,2.9-0.3,5.1-0.3,7.3c0,5,0,5-1.6,5.7c-0.9-2.2-1.1-12.7-0.4-17.6
		c1.5-0.9,2.2-0.1,2.9,1.1c1.3,2.3,2.6,4.5,4,6.8c0.5,0.9,1.1,1.7,1.9,2.9c1.7-2.8,3.2-5.3,4.7-7.9c0.5-0.8,0.8-1.7,1.4-2.3
		c0.6-0.6,1.6-0.8,2.8-1.5C115.2,468.6,115.2,474.4,115.2,480.4z"/>
	<path d="M55.9,462.3c5.1,0,9.3,4.3,9.3,9.4c0,5.1-4.3,9.3-9.4,9.3c-5.2,0-9.3-4.2-9.3-9.4C46.5,466.4,50.7,462.2,55.9,462.3z
		 M55.8,478.6c3.9,0,7-3.1,7-6.9c0-3.9-3-7-6.9-7c-4.1-0.1-7.2,3-7.1,7.1C48.9,475.7,51.9,478.6,55.8,478.6z"/>
	<path d="M1.2,480.8c-0.4-0.5-1.2-1-1.2-1.5c-0.1-5.1-0.1-10.3,0-15.4c0-0.5,0.8-1,1.2-1.5c0.3,0.1,0.5,0.2,0.8,0.3
		c0.1,2.4,0.3,4.8,0.5,7.5c3.1,0,6,0,9.3,0c0-2.1,0-4,0-5.9c0-0.8,0.2-1.8,1.3-1.5c0.4,0.1,1,0.9,1,1.4c0.1,5,0.1,10,0,15.1
		c0,0.5-0.7,0.9-1.1,1.4c-0.4-0.4-1.1-0.9-1.1-1.3c-0.1-1.9-0.1-3.9-0.1-6.1c-3.2-0.6-6.2-0.3-9.6-0.1c0,2.7,0,5,0,7.4
		C1.9,480.5,1.6,480.7,1.2,480.8z"/>
	<path d="M231.2,471.3c1.4,1.4,2.6,2.6,3.9,3.9c1-0.6,1.8-1,2.8-1.6c0.3,0.3,0.8,0.7,0.8,0.9c-0.3,0.8-0.8,1.5-1.3,2.3
		c-0.2,1.3,2.6,1.9,0.7,3.8c-0.9-0.6-1.7-1.2-2.7-1.9c-2.7,2-5.6,3.5-8.8,0.8c-2.5-2.2-2.4-5,0.3-9c-0.3-0.7-0.8-1.5-1.1-2.3
		c-0.8-2.1,0-4.3,1.9-5.3c1.9-1.1,4.6-0.6,5.8,1.2c1.3,1.8,1.2,3.8-0.5,5.6C232.8,470.2,232.2,470.6,231.2,471.3z M233.5,477.2
		c-1.6-1.7-3-3.3-4.4-4.8c-2.3,2-2.6,3.9-1.1,5.5C229.6,479.6,231.3,479.4,233.5,477.2z M232.5,466.6c0-1.2-1.3-2.3-2.5-2.3
		c-1.2,0.1-2.3,1.3-2.2,2.5c0.2,1.3,1,2,2.3,2C231.4,469,232.5,467.8,232.5,466.6z"/>
	<path d="M630.1,462.8c3.5,0,6.6,0,9.9,0c-0.1,2.8-2,1.8-3.3,1.9c-1.3,0.1-2.7,0-4.3,0c0,1.9,0,3.6,0,5.5c1.8,0.1,3.5,0.1,5.2,0.3
		c0.5,0.1,0.9,0.8,1.3,1.2c-0.4,0.3-0.8,0.9-1.2,0.9c-1.7,0.2-3.4,0.2-5.3,0.3c0,1.8,0,3.4,0,5.1c2.2,1.5,5.6-0.8,7.6,2
		c-3.3,1-6.5,0.6-9.9,0.7C630.1,474.6,630.1,468.8,630.1,462.8z"/>
	<path d="M150.7,465.1c0,1.8,0,3.3,0,5.2c1.7,0.1,3.3,0.1,4.8,0.2c0.8,0.1,1.8,0.1,1.6,1.2c-0.1,0.4-0.9,0.9-1.5,1
		c-1.6,0.1-3.1,0-4.9,0c0,2.1,0,3.8,0,5.4c2.6,0.4,5,0.7,7.4,1.1c0.1,0,0.1,0.6,0.1,1.3c-3.3,0-6.5,0-9.9,0c0-5.9,0-11.6,0-17.6
		c3.4,0,6.6,0,9.9,0C157.9,464.1,157.8,464.1,150.7,465.1z"/>
	<path d="M431.9,470.8c-0.9,1.4-0.9,1.4-6.8,2.4c0,1.6,0,3.2,0,5c2.5,0.3,4.9,0.6,7.3,1c0.1,0,0.1,0.6,0.2,1.4
		c-3.2,0.4-6.3,0.2-9.4,0.2c-0.8-2.6-1-13.9-0.2-17.9c3.1,0,6.2,0,9.3,0c0.5,1.3,0.1,1.9-1.1,2c-1.9,0-3.9,0-6.1,0
		c0,1.9,0,3.5,0,5.5C427.2,470.4,429.3,470.6,431.9,470.8z"/>
	<path d="M473.7,465c-1,0.3-1.5,0.6-2,0.5c-0.7-0.1-1.2-0.6-1.9-0.7c-1.4-0.3-2.8-0.2-3.6,1.2c-0.7,1.2,0,2.6,1.8,3.6
		c1.2,0.7,2.5,1.1,3.7,1.8c2.4,1.3,3.2,3.3,2.7,5.7c-0.5,2.2-2.2,3.5-4.7,3.8c-2.8,0.3-4.7-0.6-6.5-3.4c0.6-1.1,1.4-1.5,2.3-0.4
		c1.1,1.2,2.4,1.7,4,1.5c1.2-0.2,2.2-0.6,2.5-1.9c0.3-1.2-0.1-2.3-1.2-3c-1.3-0.7-2.7-1.3-4-2c-1.5-0.7-2.7-1.7-3.1-3.4
		c-0.6-2.9,1.2-5.6,4.2-5.9C470.1,462.2,472.1,462.6,473.7,465z"/>
	<path d="M381.5,462.7c3.3,0,6.3,0,9.4,0c0.4,1.2,0.1,2-1,2c-1.9,0.1-3.9,0-6,0c0,1.9,0,3.6,0,5.4c2.2,0.2,4.4,0.5,6.5,0.7
		c-1.6,3-4.4,1.1-6.8,2.6c0,1.6,0,3.5,0,5.4c0,1.2-0.3,2.1-2,1.5C381.5,474.7,381.5,468.9,381.5,462.7z"/>
	<path d="M559.3,462.5c-1.5,2.4-2.6,4.2-3.9,5.9c-1.8,2.4-2.8,4.9-2.4,7.9c0.1,1,0.1,2.1-0.1,3.1c-0.1,0.5-0.8,0.9-1.3,1.4
		c-0.3-0.1-0.5-0.2-0.8-0.3c0-1.8-0.2-3.6-0.1-5.3c0.1-2.1-0.5-3.8-1.6-5.4c-1.5-2.1-2.9-4.4-4.4-6.7c1.6-1,2.5-0.5,3.3,0.7
		c1.2,1.8,2.3,3.6,3.5,5.4C554.7,467.7,554.3,462.7,559.3,462.5z"/>
	<path d="M510.7,480.4c-2,0.5-2.2-0.5-2.2-1.6c0-3,0-5.9,0-8.9c0-1.6,0-3.1,0-4.2c-1.5-1.7-4.5,0.6-4.8-2.9c4,0,7.9,0,12,0
		c-0.4,3.4-3.2,1.2-4.8,2.9C510.9,470.2,510.8,475.4,510.7,480.4z"/>
	<path d="M308.2,462.9c0,5,0,10,0,15c2.5,0.5,4.5,0.8,6.5,1.2c0.1,0,0,0.6,0.1,1.2c-2.8,0-5.6,0-8.8,0c0-1.6,0-3.2,0-4.7
		c0-3.7,0-7.3,0-11C306,463.6,305.9,462.3,308.2,462.9z"/>
	<path d="M592.2,478.1c5.9,0.7,5.9,0.7,6.6,2.1c-2.8,0.9-5.6,0.4-8.8,0.3c-0.2-6-0.1-11.8-0.1-18.5c1.2,0.9,2,1.2,2.1,1.6
		c0.2,1.5,0.1,3,0.2,4.4C592.3,471.4,592.2,474.7,592.2,478.1z"/>
	<path d="M347.8,480.5c-1.7,0.4-1.9-0.6-1.9-1.7c0-3.3,0-6.6,0-9.9c0-1.6-0.1-3.2,0.1-4.8c0.1-0.5,0.8-1,1.3-1.8
		C348.3,465,348.5,475.7,347.8,480.5z"/>
	<path d="M199.9,356c-1.2,1.6-2.6,0.8-3.7,0.1c-0.9-0.6-1.6-1.4-2.4-2.2c-0.4,0.2-0.8,0.4-0.9,0.5c-2.3-2.4-4.6-4.6-6.8-6.9
		c-0.2-0.2,0-0.8,0.1-1.5c0.7,0.4,1.2,0.6,1.6,0.9c2.9,2.1,5.9,4.2,8.8,6.4C197.8,354.1,198.8,355.1,199.9,356
		C199.8,356.1,199.9,356,199.9,356z"/>
	<path d="M147.9,325.4c4.9-0.5,8,3.2,11.9,4.9c-1.3,1.5-2.7,1.7-4.3,0.6c-1.7-1.3-3.4-2.5-5.7-2.8
		C148.7,327.9,147.7,326.9,147.9,325.4z"/>
	<path d="M175.8,339.7c2.5,1.4,5.6,1.4,7,4.4c0.2,0.4,0.9,0.5,1.4,0.8c1.1,0.7,1.1,0.7,0.4,3.2c-1.4-3.2-4.3-3.3-6.9-4.2
		C175.6,343.2,175.3,342.5,175.8,339.7z"/>
	<path d="M194.3,189c1.7-2.7,3.3-5.3,5.1-7.9c0.3-0.4,1.2-0.3,2-0.2c-1.9,3.2-4,6-6.5,8.6C194.7,189.3,194.5,189.2,194.3,189z"/>
	<path d="M147,325.7c-1.2-0.3-2.1-0.3-2.6-0.7c-0.5-0.4-0.9-1.3-0.8-2c0-0.4,1-0.9,1.6-0.9c0.5,0,1.2,0.5,1.5,1
		C147,323.7,146.9,324.4,147,325.7z"/>
	<path d="M169.3,336.7c-0.8,0.3-1.6,0.6-2.6,1c-0.4-1.3-0.8-2.3-1.2-3.4c0.1-0.2,0.3-0.3,0.4-0.5c1.2,0.7,2.4,1.4,3.6,2.1
		C169.4,336.2,169.3,336.5,169.3,336.7z"/>
	<path d="M238,158.1c-1.3,2.1-2.6,4.3-4.2,6.9C234,162,234.5,161,238,158.1z"/>
	<path d="M193,192.5c-1,1.2-1.9,2.5-3.2,4.1c-0.2-2.9-0.1-3.2,2.6-4.6C192.7,192.1,192.8,192.3,193,192.5z"/>
	<path d="M162.5,332.5c1.2,0.3,2.6,0.5,1.4,3.1c-0.8-1-1.5-1.7-2.1-2.4C162,332.9,162.2,332.7,162.5,332.5z"/>
	<path d="M247.3,140.8c0.4-0.4,0.8-0.8,1.1-1.2c-0.5,1.5-1,3.1-1.4,4.6c-0.2-0.1-0.5-0.1-0.7-0.2
		C246.6,142.9,246.9,141.8,247.3,140.8z"/>
	<path d="M242,150.6c0.7-1.1,1.5-2.2,2.2-3.3c0.2,0.1,0.5,0.3,0.7,0.4c-0.7,1.2-1.3,2.3-2,3.5C242.6,151,242.3,150.8,242,150.6z"/>
	<path d="M188.9,198.7c-0.7,0.7-1.5,1.5-2.7,2.6c0-2.4,0-2.4,1.9-3.3C188.4,198.2,188.6,198.5,188.9,198.7z"/>
	<path d="M239.4,154.7c0.4-0.8,0.9-1.6,1.3-2.4c0.3,0.1,0.5,0.3,0.8,0.4c-0.5,0.8-0.9,1.6-1.4,2.4
		C239.8,155,239.6,154.8,239.4,154.7z"/>
	<path d="M170.2,336.4c1.1,0.7,1.7,1.1,2.7,1.7C171.1,338.7,170.7,338.1,170.2,336.4z"/>
	<path d="M618.4,290.6c0.6-0.2,1.2-0.3,1.8-0.5c0,0.3,0.2,0.8,0.1,0.9c-0.5,0.2-1.1,0.3-1.6,0.4
		C618.5,291.1,618.4,290.8,618.4,290.6z"/>
</g>
</svg>
