<?xml version="1.0" encoding="utf-8"?>
<!-- Generator: Adobe Illustrator 25.2.0, SVG Export Plug-In . SVG Version: 6.00 Build 0)  -->
<svg version="1.1" id="Layer_1" xmlns="http://www.w3.org/2000/svg" xmlns:xlink="http://www.w3.org/1999/xlink" x="0px" y="0px"
	 viewBox="0 0 640 512" style="enable-background:new 0 0 640 512;" xml:space="preserve">
<path d="M160,233.2L141,276h38L160,233.2z M160,233.2L141,276h38L160,233.2z M576,64H64C28.7,64,0,92.7,0,128v256
	c0,35.3,28.7,64,64,64h512c35.3,0,64-28.7,64-64V128C640,92.7,611.3,64,576,64z M232.1,346.3c-10.1,4.4-21.9-0.1-26.4-10.2
	l-8.9-20.1h-73.6l-8.9,20.1c-4.5,10.1-16.3,14.7-26.4,10.2c-10.1-4.5-14.7-16.3-10.2-26.4l64-144c3.2-7.2,10.4-11.9,18.3-11.9
	s15.1,4.7,18.3,11.9l64,144C246.7,330,242.2,341.9,232.1,346.3z M576,384H320V128h256V384z M141,276h38l-19-42.8L141,276z"/>
<g>
	<g>
		<path d="M371.8,183.4L371.8,183.4c0-10.7,8.7-19.4,19.4-19.4h113.6c10.7,0,19.4,8.7,19.4,19.4v0c0,10.7-8.7,19.4-19.4,19.4H391.2
			C380.5,202.9,371.8,194.2,371.8,183.4z M373,276.4c0-18.4,6.7-32.6,20-42.7c13.4-10,31.8-15,55.3-15c23.3,0,41.6,5,54.8,15
			c13.3,10,19.9,24.2,19.9,42.7v52.2c0,10.7-8.7,19.4-19.4,19.4h-12.8c-10.7,0-19.4-8.7-19.4-19.4v-52.2c0-6.9-2.1-12.1-6.4-15.8
			c-4.3-3.6-9.9-5.5-17-5.5c-6.9,0-12.5,1.8-16.9,5.5c-4.4,3.6-6.5,8.9-6.5,15.8v52.2c0,10.7-8.7,19.4-19.4,19.4h-12.8
			c-10.7,0-19.4-8.7-19.4-19.4V276.4z"/>
	</g>
</g>
</svg>
